<svg xmlns="http://www.w3.org/2000/svg" xmlns:xlink="http://www.w3.org/1999/xlink" class="ldi-bgis91" width="200px" height="200px" viewBox="0 0 100 100" preserveAspectRatio="xMidYMid" style="background: none;"><!--?xml version="1.0" encoding="utf-8"?--><!--Generator: Adobe Illustrator 21.0.0, SVG Export Plug-In . SVG Version: 6.00 Build 0)--><svg xmlns="http://www.w3.org/2000/svg" xmlns:xlink="http://www.w3.org/1999/xlink" version="1.1" x="0px" y="0px" viewBox="0 0 100 100" style="transform-origin: 50px 50px 0px;" xml:space="preserve"><g style="transform-origin: 50px 50px 0px;"><g style="transform-origin: 50px 50px 0px; transform: scale(0.6);"><g style="transform-origin: 50px 50px 0px;"><g><style type="text/css" class="ld ld-breath" style="transform-origin: 50px 50px 0px; animation-duration: 1s; animation-delay: -1s; animation-direction: normal;">.st0{fill:#D0DCB1;} .st1{fill:none;stroke:#889B5F;stroke-width:2.9501;} .st2{fill:#889B5F;} .st3{fill:#F5B81E;} .st4{fill:#BD8F33;} .st5{fill:#CB902B;} .st6{fill:url(#SVGID_1_);} .st7{fill:url(#SVGID_2_);} .st8{fill:url(#SVGID_3_);} .st9{fill:url(#SVGID_4_);} .st10{fill:#8F6F35;} .st11{fill:url(#SVGID_5_);} .st12{fill:url(#SVGID_6_);} .st13{fill:url(#SVGID_7_);} .st14{fill:#F6CE27;} .st15{fill:url(#SVGID_8_);} .st16{fill:url(#SVGID_9_);} .st17{fill:url(#SVGID_10_);} .st18{fill:url(#SVGID_11_);} .st19{fill:url(#SVGID_12_);} .st20{fill:url(#SVGID_13_);} .st21{fill:#CFD5D9;} .st22{fill:url(#SVGID_14_);} .st23{fill:url(#SVGID_15_);} .st24{fill:url(#SVGID_16_);} .st25{fill:url(#SVGID_17_);} .st26{fill:url(#SVGID_18_);} .st27{fill:url(#SVGID_19_);} .st28{fill:url(#SVGID_20_);}</style><g style="transform-origin: 50px 50px 0px;"><g id="Layer_1"><g style="transform-origin: 50px 50px 0px;"><g id="icon"><g style="transform-origin: 50px 50px 0px;"><g id="Layer_4"><g style="transform-origin: 50px 50px 0px;"><g><linearGradient id="SVGID_1_" gradientUnits="userSpaceOnUse" x1="51.1699" y1="22.1949" x2="51.1699" y2="79.5664" class="ld ld-breath" style="transform-origin: 50px 50px 0px; animation-duration: 1s; animation-delay: -0.961538s; animation-direction: normal;"><stop offset="0" style="stop-color: rgb(245, 213, 43); transform-origin: 50px 50px 0px; animation-duration: 1s; animation-delay: -0.923077s; animation-direction: normal;" stop-color="rgb(245, 213, 43)" class="ld ld-breath"/><stop offset="1" style="stop-color: rgb(223, 160, 38); transform-origin: 50px 50px 0px; animation-duration: 1s; animation-delay: -0.884615s; animation-direction: normal;" stop-color="rgb(223, 160, 38)" class="ld ld-breath"/></linearGradient><g class="ld ld-breath" style="transform-origin: 50px 50px 0px; animation-duration: 1s; animation-delay: -0.846154s; animation-direction: normal;"><path class="st6" d="M35.498,28.138c0-2.594,0.215-5.042,0.625-7.346c0.459-2.575-1.861-3.05-4.483-1.685 c-3.92,2.041-7.339,4.737-10.078,8.088c-4.546,5.562-7.222,12.927-7.222,22.103c0,23.332,17.306,34.966,38.656,34.966 c9.208,0,17.663-2.269,24.302-6.676c3.931-2.609,7.225-5.968,9.662-10.05c1.903-3.188,1.245-6.225-2.407-5.467 c-3.309,0.687-6.796,1.034-10.399,1.034C52.805,63.104,35.498,51.471,35.498,28.138z"/></g></g></g><linearGradient id="SVGID_2_" gradientUnits="userSpaceOnUse" x1="60.7826" y1="26.0404" x2="60.7826" y2="46.7687" class="ld ld-breath" style="transform-origin: 50px 50px 0px; animation-duration: 1s; animation-delay: -0.807692s; animation-direction: normal;"><stop offset="0" style="stop-color: rgb(245, 213, 43); transform-origin: 50px 50px 0px; animation-duration: 1s; animation-delay: -0.769231s; animation-direction: normal;" stop-color="rgb(245, 213, 43)" class="ld ld-breath"/><stop offset="1" style="stop-color: rgb(223, 160, 38); transform-origin: 50px 50px 0px; animation-duration: 1s; animation-delay: -0.730769s; animation-direction: normal;" stop-color="rgb(223, 160, 38)" class="ld ld-breath"/></linearGradient><g class="ld ld-breath" style="transform-origin: 50px 50px 0px; animation-duration: 1s; animation-delay: -0.692308s; animation-direction: normal;"><path class="st7" d="M60.783,25.244c2.061,0,2.932,6.545,3.963,7.515c1.032,0.971,7.66-0.625,8.373,1.448 c0.713,2.073-5.272,4.835-5.923,6.092c-0.651,1.257,3.029,7.165,1.211,8.41c-1.818,1.245-6.208-3.75-7.624-3.75 c-1.416,0-5.883,5.128-7.624,3.75c-1.741-1.378,1.862-7.153,1.211-8.41c-0.651-1.257-6.646-4.044-5.923-6.092 c0.724-2.048,7.34-0.477,8.373-1.448C57.852,31.789,58.723,25.244,60.783,25.244z"/></g><linearGradient id="SVGID_3_" gradientUnits="userSpaceOnUse" x1="79.3272" y1="17.6539" x2="79.3272" y2="28.1707" class="ld ld-breath" style="transform-origin: 50px 50px 0px; animation-duration: 1s; animation-delay: -0.653846s; animation-direction: normal;"><stop offset="0" style="stop-color: rgb(245, 213, 43); transform-origin: 50px 50px 0px; animation-duration: 1s; animation-delay: -0.615385s; animation-direction: normal;" stop-color="rgb(245, 213, 43)" class="ld ld-breath"/><stop offset="1" style="stop-color: rgb(223, 160, 38); transform-origin: 50px 50px 0px; animation-duration: 1s; animation-delay: -0.576923s; animation-direction: normal;" stop-color="rgb(223, 160, 38)" class="ld ld-breath"/></linearGradient><g class="ld ld-breath" style="transform-origin: 50px 50px 0px; animation-duration: 1s; animation-delay: -0.538462s; animation-direction: normal;"><path class="st8" d="M79.327,17.25c1.046,0,1.488,3.32,2.011,3.813c0.523,0.492,3.885-0.317,4.248,0.734 c0.362,1.051-2.675,2.453-3.005,3.09c-0.331,0.638,1.536,3.635,0.614,4.267c-0.922,0.632-3.149-1.903-3.869-1.903 c-0.718,0-2.984,2.602-3.868,1.903c-0.883-0.699,0.945-3.629,0.614-4.267c-0.331-0.638-3.372-2.051-3.005-3.09 c0.367-1.039,3.725-0.242,4.248-0.734C77.84,20.57,78.282,17.25,79.327,17.25z"/></g></g></g></g></g></g></g><metadata xmlns:d="https://loading.io/stock/" class="ld ld-breath" style="transform-origin: 50px 50px 0px; animation-duration: 1s; animation-delay: -0.5s; animation-direction: normal;">
<d:name class="ld ld-breath" style="transform-origin: 50px 50px 0px; animation-duration: 1s; animation-delay: -0.461538s; animation-direction: normal;">moon</d:name>
    <d:tags class="ld ld-breath" style="transform-origin: 50px 50px 0px; animation-duration: 1s; animation-delay: -0.423077s; animation-direction: normal;">moon,kristi</d:tags>
    <d:license class="ld ld-breath" style="transform-origin: 50px 50px 0px; animation-duration: 1s; animation-delay: -0.384615s; animation-direction: normal;">cc0</d:license>
    <d:slug class="ld ld-breath" style="transform-origin: 50px 50px 0px; animation-duration: 1s; animation-delay: -0.346154s; animation-direction: normal;">bgis91</d:slug>
</metadata></g></g></g></g><style type="text/css" class="ld ld-breath" style="transform-origin: 50px 50px 0px; animation-duration: 1s; animation-delay: -0.307692s; animation-direction: normal;">@keyframes ld-breath {
  0% {
    -webkit-transform: scale(0.86);
    transform: scale(0.86);
  }
  50% {
    -webkit-transform: scale(1.06);
    transform: scale(1.06);
  }
  100% {
    -webkit-transform: scale(0.86);
    transform: scale(0.86);
  }
}
@-webkit-keyframes ld-breath {
  0% {
    -webkit-transform: scale(0.86);
    transform: scale(0.86);
  }
  50% {
    -webkit-transform: scale(1.06);
    transform: scale(1.06);
  }
  100% {
    -webkit-transform: scale(0.86);
    transform: scale(0.86);
  }
}
.ld.ld-breath {
  -webkit-animation: ld-breath 1s infinite;
  animation: ld-breath 1s infinite;
}
</style></svg></svg>
